HIERARCHY
ROOT CG
{
	OFFSET -0.000000 -0.000000 27.772259
	CHANNELS 6 Xposition Yposition Zposition Xrotation Yrotation Zrotation
	JOINT Pelvis
	{
		OFFSET 0.000000 0.000000 0.000000
		CHANNELS 3 Xrotation Yrotation Zrotation
		JOINT Spine
		{
			OFFSET 0.000021 -10.490843 -0.495483
			CHANNELS 3 Xrotation Yrotation Zrotation
			JOINT Spine1
			{
				OFFSET 0.000071 -22.678980 0.018061
				CHANNELS 3 Xrotation Yrotation Zrotation
				JOINT Spine2
				{
					OFFSET 0.000071 -22.678967 0.018061
					CHANNELS 3 Xrotation Yrotation Zrotation
					JOINT Spine3
					{
						OFFSET 0.000071 -22.678982 0.018059
						CHANNELS 3 Xrotation Yrotation Zrotation
						JOINT Neck
						{
							OFFSET 0.000069 -22.678986 -1.289251
							CHANNELS 3 Xrotation Yrotation Zrotation
							JOINT Neck1
							{
								OFFSET 0.000051 -16.255905 0.012947
								CHANNELS 3 Xrotation Yrotation Zrotation
								JOINT Head
								{
									OFFSET 0.000033 -10.784607 -0.287502
									CHANNELS 3 Xrotation Yrotation Zrotation
									JOINT Jaw01
									{
										OFFSET 0.000003 7.782959 5.073944
										CHANNELS 3 Xrotation Yrotation Zrotation
										JOINT Jaw02
										{
											OFFSET 0.000129 -34.927139 -18.883980
											CHANNELS 3 Xrotation Yrotation Zrotation
											End Site
											{
												OFFSET -0.000200 8.372803 -38.812450
											}
										}
									}
									JOINT Nose
									{
										OFFSET 0.000090 -25.700912 7.222265
										CHANNELS 3 Xrotation Yrotation Zrotation
										End Site
										{
											OFFSET -0.000092 0.641281 -21.715439
										}
									}
									JOINT L_EyeSocket
									{
										OFFSET 7.352397 -19.832687 14.164183
										CHANNELS 3 Xrotation Yrotation Zrotation
										JOINT L_Eye
										{
											OFFSET -0.000868 -0.001053 0.016003
											CHANNELS 3 Xrotation Yrotation Zrotation
											End Site
											{
												OFFSET -0.001505 -0.001846 0.027969
											}
										}
										JOINT L_Eyelid_Top
										{
											OFFSET -0.001004 -0.002625 0.032516
											CHANNELS 3 Xrotation Yrotation Zrotation
											End Site
											{
												OFFSET -0.013218 0.005753 0.024086
											}
										}
										JOINT L_Eyelid_Bottom
										{
											OFFSET -0.001194 -0.002777 0.035381
											CHANNELS 3 Xrotation Yrotation Zrotation
											End Site
											{
												OFFSET -0.010032 0.008636 -0.024754
											}
										}
									}
									JOINT R_EyeSocket
									{
										OFFSET -7.352180 -19.832779 14.164206
										CHANNELS 3 Xrotation Yrotation Zrotation
										JOINT R_Eye
										{
											OFFSET 0.000875 -0.001068 0.015991
											CHANNELS 3 Xrotation Yrotation Zrotation
											End Site
											{
												OFFSET 0.001505 -0.001846 0.027962
											}
										}
										JOINT R_Eyelid_Top
										{
											OFFSET 0.001021 -0.002625 0.032516
											CHANNELS 3 Xrotation Yrotation Zrotation
											End Site
											{
												OFFSET 0.013214 0.005753 0.024078
											}
										}
										JOINT R_Eyelid_Bottom
										{
											OFFSET 0.001170 -0.002762 0.035366
											CHANNELS 3 Xrotation Yrotation Zrotation
											End Site
											{
												OFFSET 0.010029 0.008636 -0.024746
											}
										}
									}
								}
								JOINT Neck_Fat
								{
									OFFSET 0.000078 -9.595100 -17.491512
									CHANNELS 3 Xrotation Yrotation Zrotation
									End Site
									{
										OFFSET -0.000091 15.369423 -0.000007
									}
								}
							}
						}
						JOINT L_Clavicle
						{
							OFFSET 4.567149 -11.666077 -3.750029
							CHANNELS 3 Xrotation Yrotation Zrotation
							JOINT L_UpperArm
							{
								OFFSET 20.725664 0.000023 -0.000032
								CHANNELS 3 Xrotation Yrotation Zrotation
								JOINT L_Forearm
								{
									OFFSET 5.265114 -0.585732 -20.155697
									CHANNELS 3 Xrotation Yrotation Zrotation
									JOINT L_Hand
									{
										OFFSET 2.653055 -10.877701 -16.383667
										CHANNELS 3 Xrotation Yrotation Zrotation
										JOINT L_Finger0
										{
											OFFSET -4.206129 -4.328926 -5.034346
											CHANNELS 3 Xrotation Yrotation Zrotation
											JOINT L_Finger01
											{
												OFFSET 0.084278 -1.788536 -4.181065
												CHANNELS 3 Xrotation Yrotation Zrotation
												End Site
												{
													OFFSET 3.261873 3.094681 -0.685818
												}
											}
										}
										JOINT L_Finger1
										{
											OFFSET -1.039085 -6.775749 -3.499998
											CHANNELS 3 Xrotation Yrotation Zrotation
											JOINT L_Finger11
											{
												OFFSET 1.320347 -3.040665 -6.425793
												CHANNELS 3 Xrotation Yrotation Zrotation
												End Site
												{
													OFFSET -1.244606 6.832069 -2.013330
												}
											}
										}
										JOINT L_Finger2
										{
											OFFSET 2.531319 -5.656479 -3.286415
											CHANNELS 3 Xrotation Yrotation Zrotation
											JOINT L_Finger21
											{
												OFFSET 1.991673 -2.402008 -5.957748
												CHANNELS 3 Xrotation Yrotation Zrotation
												End Site
												{
													OFFSET -2.793091 5.800865 -1.944178
												}
											}
										}
										JOINT L_Finger3
										{
											OFFSET 5.474087 -3.302322 -2.655975
											CHANNELS 3 Xrotation Yrotation Zrotation
											JOINT L_Finger31
											{
												OFFSET 2.026951 -1.267525 -5.961166
												CHANNELS 3 Xrotation Yrotation Zrotation
												End Site
												{
													OFFSET -4.375191 4.343643 -1.800320
												}
											}
										}
										JOINT L_Finger4
										{
											OFFSET 4.825741 1.085915 -2.321970
											CHANNELS 3 Xrotation Yrotation Zrotation
											JOINT L_Finger41
											{
												OFFSET 3.358269 -1.829636 -3.744434
												CHANNELS 3 Xrotation Yrotation Zrotation
												End Site
												{
													OFFSET -3.843307 2.955185 -2.267633
												}
											}
										}
									}
								}
							}
						}
						JOINT R_Clavicle
						{
							OFFSET -4.567070 -11.666107 -3.750036
							CHANNELS 3 Xrotation Yrotation Zrotation
							JOINT R_UpperArm
							{
								OFFSET -20.725672 -0.000107 0.000038
								CHANNELS 3 Xrotation Yrotation Zrotation
								JOINT R_Forearm
								{
									OFFSET -5.265284 -0.585785 -20.155655
									CHANNELS 3 Xrotation Yrotation Zrotation
									JOINT R_Hand
									{
										OFFSET -2.653109 -10.877747 -16.383663
										CHANNELS 3 Xrotation Yrotation Zrotation
										JOINT R_Finger0
										{
											OFFSET 4.206133 -4.328873 -5.034388
											CHANNELS 3 Xrotation Yrotation Zrotation
											JOINT R_Finger01
											{
												OFFSET -0.084318 -1.788544 -4.181051
												CHANNELS 3 Xrotation Yrotation Zrotation
												End Site
												{
													OFFSET -3.261902 3.094658 -0.685791
												}
											}
										}
										JOINT R_Finger1
										{
											OFFSET 1.039127 -6.775703 -3.499994
											CHANNELS 3 Xrotation Yrotation Zrotation
											JOINT R_Finger11
											{
												OFFSET -1.320362 -3.040680 -6.425779
												CHANNELS 3 Xrotation Yrotation Zrotation
												End Site
												{
													OFFSET 1.244530 6.832085 -2.013342
												}
											}
										}
										JOINT R_Finger2
										{
											OFFSET -2.531284 -5.656471 -3.286409
											CHANNELS 3 Xrotation Yrotation Zrotation
											JOINT R_Finger21
											{
												OFFSET -1.991699 -2.402023 -5.957708
												CHANNELS 3 Xrotation Yrotation Zrotation
												End Site
												{
													OFFSET 2.793015 5.800865 -1.944197
												}
											}
										}
										JOINT R_Finger3
										{
											OFFSET -5.474079 -3.302345 -2.655947
											CHANNELS 3 Xrotation Yrotation Zrotation
											JOINT R_Finger31
											{
												OFFSET -2.026985 -1.267540 -5.961157
												CHANNELS 3 Xrotation Yrotation Zrotation
												End Site
												{
													OFFSET 4.375137 4.343689 -1.800358
												}
											}
										}
										JOINT R_Finger4
										{
											OFFSET -4.825760 1.085907 -2.321926
											CHANNELS 3 Xrotation Yrotation Zrotation
											JOINT R_Finger41
											{
												OFFSET -3.358299 -1.829666 -3.744390
												CHANNELS 3 Xrotation Yrotation Zrotation
												End Site
												{
													OFFSET 3.843262 2.955223 -2.267666
												}
											}
										}
									}
								}
							}
						}
					}
				}
			}
		}
		JOINT Tail01
		{
			OFFSET -0.000049 10.922326 -0.017508
			CHANNELS 3 Xrotation Yrotation Zrotation
			JOINT Tail02
			{
				OFFSET -0.000100 21.986111 0.000013
				CHANNELS 3 Xrotation Yrotation Zrotation
				JOINT Tail03
				{
					OFFSET -0.000100 21.986118 0.000002
					CHANNELS 3 Xrotation Yrotation Zrotation
					JOINT Tail04
					{
						OFFSET -0.000100 21.986122 0.000004
						CHANNELS 3 Xrotation Yrotation Zrotation
						JOINT Tail05
						{
							OFFSET -0.000100 21.986099 0.000010
							CHANNELS 3 Xrotation Yrotation Zrotation
							JOINT Tail06
							{
								OFFSET -0.000100 21.986099 0.000006
								CHANNELS 3 Xrotation Yrotation Zrotation
								JOINT Tail07
								{
									OFFSET -0.000100 21.986099 0.000000
									CHANNELS 3 Xrotation Yrotation Zrotation
									JOINT Tail08
									{
										OFFSET -0.000100 21.984848 0.000050
										CHANNELS 3 Xrotation Yrotation Zrotation
										JOINT Tail09
										{
											OFFSET -0.000103 21.926025 -1.606211
											CHANNELS 3 Xrotation Yrotation Zrotation
											JOINT Tail10
											{
												OFFSET -0.000105 21.750092 -3.203882
												CHANNELS 3 Xrotation Yrotation Zrotation
												End Site
												{
													OFFSET -0.000053 4.767395 21.461668
												}
											}
										}
									}
								}
							}
						}
					}
				}
			}
		}
		JOINT L_Thigh
		{
			OFFSET 24.788780 0.000110 -0.000034
			CHANNELS 3 Xrotation Yrotation Zrotation
			JOINT L_Calf
			{
				OFFSET 4.720823 4.161343 -21.049969
				CHANNELS 3 Xrotation Yrotation Zrotation
				JOINT L_Foot
				{
					OFFSET 2.154083 21.114443 -11.949743
					CHANNELS 3 Xrotation Yrotation Zrotation
					JOINT L_Toe0
					{
						OFFSET 4.557531 9.251856 -8.735286
						CHANNELS 3 Xrotation Yrotation Zrotation
						End Site
						{
							OFFSET 4.555584 -12.646029 1.018752
						}
					}
					JOINT L_Toe1
					{
						OFFSET 2.346270 5.845610 -11.687160
						CHANNELS 3 Xrotation Yrotation Zrotation
						End Site
						{
							OFFSET 5.347996 -12.298262 1.365644
						}
					}
					JOINT L_Toe2
					{
						OFFSET -0.356033 3.902456 -12.541145
						CHANNELS 3 Xrotation Yrotation Zrotation
						End Site
						{
							OFFSET 3.916277 -12.806116 1.542549
						}
					}
					JOINT L_Toe3
					{
						OFFSET -4.603458 3.183916 -12.435249
						CHANNELS 3 Xrotation Yrotation Zrotation
						End Site
						{
							OFFSET 3.810904 -12.587413 2.957583
						}
					}
					JOINT L_Toe4
					{
						OFFSET -7.144381 6.231468 -10.072764
						CHANNELS 3 Xrotation Yrotation Zrotation
						End Site
						{
							OFFSET 3.810902 -12.587412 2.957585
						}
					}
				}
			}
		}
		JOINT R_Thigh
		{
			OFFSET -24.788780 -0.000112 0.000034
			CHANNELS 3 Xrotation Yrotation Zrotation
			JOINT R_Calf
			{
				OFFSET -4.720936 4.161307 -21.049952
				CHANNELS 3 Xrotation Yrotation Zrotation
				JOINT R_Foot
				{
					OFFSET -2.154314 21.114407 -11.949730
					CHANNELS 3 Xrotation Yrotation Zrotation
					JOINT R_Toe0
					{
						OFFSET -4.557631 9.251808 -8.735270
						CHANNELS 3 Xrotation Yrotation Zrotation
						End Site
						{
							OFFSET -4.555466 -12.646067 1.018756
						}
					}
					JOINT R_Toe1
					{
						OFFSET -2.346346 5.845581 -11.687157
						CHANNELS 3 Xrotation Yrotation Zrotation
						End Site
						{
							OFFSET -5.347878 -12.298304 1.365654
						}
					}
					JOINT R_Toe2
					{
						OFFSET 0.355967 3.902464 -12.541145
						CHANNELS 3 Xrotation Yrotation Zrotation
						End Site
						{
							OFFSET -3.916157 -12.806145 1.542559
						}
					}
					JOINT R_Toe3
					{
						OFFSET 4.603399 3.183960 -12.435266
						CHANNELS 3 Xrotation Yrotation Zrotation
						End Site
						{
							OFFSET -3.810780 -12.587443 2.957591
						}
					}
					JOINT R_Toe4
					{
						OFFSET 7.144300 6.231529 -10.072779
						CHANNELS 3 Xrotation Yrotation Zrotation
						End Site
						{
							OFFSET -3.810781 -12.587446 2.957584
						}
					}
				}
			}
		}
	}
}
MOTION
Frames: 4
Frame Time: 0.033333
-0.000000 -0.000000 48.000000 0.000000 -0.000000 -0.000082 -13.043379 -3.860291 1.530181 14.129331 2.343223 -6.318144 0.817446 -0.058542 2.334299 -0.328426 -0.058499 2.315470 -5.717855 -0.050942 2.491063 4.615866 0.099729 0.116602 -7.018547 -0.007088 0.127333 3.166386 1.181976 -3.398595 -3.268544 0.304097 -0.440149 0.000003 0.000000 0.000000 -0.000000 -0.000000 -0.000000 -0.000000 0.000000 -0.000001 0.000112 -0.000069 0.000003 -0.000004 0.000000 0.000001 0.000003 0.000004 0.000006 0.000000 0.000000 -0.000001 0.000110 0.000069 -0.000009 0.000002 -0.000003 -0.000000 0.000001 -0.000002 0.000000 -0.110956 -0.000000 -0.000000 -0.001186 2.568236 13.397226 26.684876 -8.724406 -38.699835 -3.583398 0.590603 -0.935437 -72.010432 -11.089784 -12.111630 4.814079 45.237890 32.496872 0.108386 -0.103823 0.046715 31.239834 13.715233 -10.715238 -21.103469 -3.971405 -2.962981 30.256498 6.344524 -6.448702 -32.343234 -14.390468 -8.157544 20.872375 -11.244743 -8.185815 -18.722356 -18.085463 -5.094111 18.635613 -29.682592 -0.393830 0.555228 0.804626 0.101798 -0.000187 5.368919 -7.510976 36.704364 33.383861 15.729830 -47.357909 -11.661191 8.438404 -8.274162 -23.428845 -14.783798 23.969465 -28.202838 -21.010207 50.815972 27.848744 -32.459726 46.269303 -13.278101 7.057295 38.067458 -8.802586 -1.104529 42.415895 -17.986762 10.448330 20.691775 -11.036724 -0.569181 24.428597 -13.040151 13.322241 22.096067 -22.537275 1.914096 16.454602 -10.487628 6.154189 40.574735 -45.309641 11.883108 -4.675285 0.940205 -3.369271 -10.623178 -1.753767 7.742220 9.357538 0.793226 12.074243 6.884257 0.138004 1.785001 6.969316 -0.421953 -1.768878 5.906894 -1.047724 -6.221145 1.315202 -0.782550 -10.134385 3.036002 -1.642396 -11.565681 1.579395 -2.065197 -10.103936 1.842646 -1.715532 -6.252590 -44.729000 -10.792544 -20.534854 42.763835 4.624240 8.562866 -46.932924 31.640995 -6.199454 45.858133 26.415425 5.832779 56.430565 32.128984 2.701755 67.673678 38.171441 1.612736 74.130871 37.984946 -15.474439 46.840628 38.432798 -2.984390 -15.541148 5.334826 -10.759306 17.480524 -1.092802 -3.887748 -66.271850 -3.382000 23.449761 6.063389 26.117248 -5.603928 10.996495 7.513774 -3.931408 16.301237 -9.964394 -1.750190 18.235367 -15.310853 15.214511 -6.000050 -24.357069 11.013626 
-0.000000 -0.000000 49.003365 0.000000 -0.000000 -0.000082 -13.096399 -2.362616 -1.476328 14.442812 0.303220 -4.399443 0.698114 0.093868 3.180788 0.595286 0.076792 3.133186 -5.252945 0.101114 3.374531 3.522333 0.051204 -0.817062 -8.382175 0.071278 -0.807069 3.188527 2.253190 -2.601131 -3.798000 0.296528 -0.424044 0.000003 -0.000000 0.000000 0.000000 0.000000 -0.000000 -0.000000 0.000000 -0.000001 0.000112 -0.000069 0.000003 -0.000001 0.000001 0.000000 0.000003 0.000000 0.000003 -0.000001 0.000000 -0.000001 0.000110 0.000069 -0.000012 0.000001 -0.000003 -0.000004 0.000002 -0.000000 -0.000003 -0.085454 -0.000000 -0.000000 -0.001419 2.710790 14.794193 37.704796 -14.459019 -37.682932 -11.722248 2.147767 -2.919699 -53.976519 -12.871140 -8.888113 -16.338038 37.642573 26.369509 -0.484787 0.466432 -0.206970 6.224131 4.132134 -11.843709 -21.392965 -4.017341 -3.013080 5.644006 -3.790577 -7.549580 -33.178337 -14.673487 -8.460820 -3.853104 -21.125118 -10.885121 -18.882492 -18.219670 -5.160142 13.198485 -31.574226 -1.348465 0.335352 -0.220340 -0.514319 -0.000124 1.982705 -3.550775 29.331336 34.141086 12.920350 -41.440872 -9.873324 7.946516 -21.882244 -22.904582 -21.711146 27.912284 -27.981576 -18.635124 49.267616 27.559595 -31.304683 48.129867 -15.305778 4.762276 35.637755 -8.239663 -1.211877 43.923775 -17.956716 10.149568 19.384654 -10.345955 -0.652531 25.964682 -13.072193 14.377046 19.844604 -20.447920 1.324419 15.302077 -8.831046 7.542948 39.813555 -45.450821 11.199540 -4.482979 0.825652 -2.818715 -10.506237 -2.399801 8.007262 8.179629 0.032425 11.062174 6.208377 -0.013293 2.566051 7.097363 -0.232668 0.214407 6.566796 -0.702903 -3.360053 2.163518 -0.654294 -7.316054 3.942048 -1.575123 -9.744240 2.358279 -2.211783 -10.030030 2.149938 -2.309603 -8.356005 -53.659011 -15.718704 -12.745714 40.471890 4.221625 8.206542 -39.279868 29.950270 -13.227723 38.867461 17.141606 3.789027 49.651852 22.571444 0.828150 59.841275 28.053274 0.504575 63.536967 27.735026 -14.064392 38.738743 28.930643 -3.877077 -7.655085 4.019528 -9.465257 13.825955 -0.766471 -3.103991 -62.152447 -4.511873 21.771472 4.303195 24.965829 -5.561795 8.145848 7.910479 -3.506371 13.007162 -8.966215 -1.923416 14.915747 -14.318932 15.003229 -6.193169 -23.817063 11.207577 
-0.000000 -0.000000 50.006744 0.000000 -0.000000 -0.000082 -13.067553 -0.735699 -4.897340 14.923823 -1.717440 -2.026859 0.579346 0.235072 4.027596 1.517107 0.223396 3.948627 -4.790322 0.247187 4.256792 2.428216 0.022569 -1.751490 -9.744593 0.160373 -1.739517 3.214403 3.333570 -1.775823 -4.327453 0.289173 -0.401919 0.000004 -0.000000 0.000000 -0.000000 0.000000 -0.000000 0.000000 0.000000 0.000002 0.000113 -0.000069 0.000003 -0.000001 0.000000 -0.000002 0.000003 0.000001 0.000003 -0.000000 0.000000 -0.000005 0.000110 0.000069 -0.000010 -0.000000 -0.000003 -0.000000 0.000003 -0.000002 -0.000002 -0.058317 -0.000000 -0.000000 -0.001710 2.647237 15.964841 44.928677 -16.976213 -36.655709 -12.782449 2.371588 -3.162211 -41.870152 -12.338659 -6.475074 -32.126970 33.706154 21.140148 -1.258702 1.217917 -0.530630 -12.643910 -1.916368 -15.029664 -21.594232 -4.049121 -3.048047 -12.863220 -10.506848 -11.026217 -34.277058 -15.037954 -8.865399 -22.922972 -27.220409 -15.738195 -18.936858 -18.265133 -5.182631 9.003188 -32.689053 -2.176632 0.008951 -1.731781 -1.438018 -0.000079 -1.403597 0.409412 22.227980 36.276026 10.452717 -35.537351 -8.144711 7.273454 -35.210554 -20.901031 -28.258017 31.830871 -27.617259 -16.289313 47.730356 27.243024 -30.162010 49.923256 -17.403691 2.511951 33.212471 -7.672742 -1.294903 45.433698 -17.930467 9.858026 18.082065 -9.652083 -0.720093 27.502607 -13.075313 15.437107 17.644716 -18.338797 0.829188 14.114061 -7.202767 8.959429 39.053666 -45.582347 10.519483 -4.285875 0.714036 -2.280075 -10.310917 -2.907707 8.162222 7.379371 -0.620771 10.303398 5.531652 -0.173942 3.411830 6.914960 -0.098402 1.991029 6.890086 -0.387611 -0.810256 2.865830 -0.524605 -4.680413 4.881781 -1.467016 -7.893502 3.256304 -2.298473 -9.730727 2.579824 -2.821258 -10.052350 -59.287504 -20.078997 -5.045345 33.599067 3.105270 7.047908 -32.259103 25.099851 -18.455875 31.795852 8.168958 0.696250 42.910462 13.275344 -2.089845 52.371217 18.147700 -1.958323 53.972336 17.436232 -14.741507 31.062655 19.619467 -6.113382 -0.455275 3.136611 -7.351995 8.984045 -0.412691 -2.037952 -53.446889 -5.237113 20.412562 -0.424907 21.820098 -5.642742 0.329267 8.882057 -2.247207 4.060856 -6.207298 -2.098218 5.931819 -11.567178 14.732175 -6.738134 -22.339954 11.752006 
-0.000000 -0.000000 50.462830 0.000000 -0.000000 -0.000082 -12.935429 0.884002 -8.319740 15.332805 -3.527618 0.629758 0.470375 0.334430 4.716988 2.322300 0.339313 4.605324 -4.324702 0.352254 4.971407 1.506061 0.010694 -2.542916 -10.914816 0.256254 -2.526863 3.363143 4.317289 -1.014843 -4.692158 0.282078 -0.339966 0.000003 0.000000 -0.000000 -0.000000 0.000000 0.000000 0.000001 0.000000 -0.000001 0.000112 -0.000069 0.000003 -0.000001 0.000002 0.000001 0.000004 0.000003 0.000003 0.000001 0.000000 -0.000005 0.000110 0.000069 -0.000010 -0.000001 -0.000005 0.000002 -0.000003 -0.000004 -0.000000 -0.032736 -0.000001 -0.000000 -0.001674 2.118018 16.469820 50.108440 -15.306225 -33.187886 -8.490906 1.494790 -2.156987 -43.483163 -10.123583 -10.464627 -34.762610 35.731885 25.774914 -3.488113 3.427653 -1.414976 -13.183533 -0.389869 -13.677829 -22.612135 -4.207886 -3.226540 -11.242473 -10.516729 -10.408627 -37.498797 -16.054433 -10.086619 -18.553683 -27.478073 -14.805328 -19.471240 -18.709505 -5.405712 9.002166 -32.282138 -1.957327 -1.380972 -5.894825 -3.730644 0.000155 -6.024377 3.982776 15.157255 39.448529 8.825302 -29.918042 -6.570407 6.471765 -44.595671 -16.978220 -32.022423 29.238759 -27.998706 -18.139990 41.550114 25.665102 -25.618064 47.507176 -17.448055 -0.156092 26.760925 -6.148718 -1.397268 43.315496 -16.326427 8.998958 12.760054 -6.801422 -0.827878 26.331049 -11.323091 16.903818 12.963783 -13.659700 0.054217 12.016212 -4.259286 11.296359 33.598974 -41.908029 7.185318 -4.079388 0.602664 -1.769334 -9.943822 -3.122649 8.103496 7.698366 -1.052088 10.518815 4.722031 -0.335469 4.477129 5.758583 -0.101158 3.118201 6.313620 -0.258268 0.830951 3.273700 -0.421831 -2.507887 6.081488 -1.268933 -5.877932 4.578812 -2.226520 -8.785453 3.334292 -3.119730 -10.683012 -55.241235 -16.603941 5.787132 9.864991 0.470393 2.233930 -24.709835 9.937113 -20.243306 9.979993 6.389157 -0.608751 20.662185 11.367054 -1.469552 29.526966 17.537604 1.270971 31.570569 19.327429 -10.631465 8.678284 20.416714 -0.440727 5.649333 3.033326 -4.747483 4.625521 -0.172470 -1.056956 -42.477076 -5.953923 19.474003 -6.745501 17.553935 -6.189072 -10.410981 9.916917 -0.329366 -8.095889 -2.462170 -1.639959 -6.202562 -7.809025 15.070696 -7.471547 -20.342851 12.490847 
